<?xml version="1.0" standalone="no"?>
<svg viewBox="0 0 200 200" xmlns="http://www.w3.org/2000/svg">
  <path fill="#FF0066" d="M46.2,-80.7C59.1,-72.5,68.3,-58.6,75,-44.2C81.7,-29.9,85.9,-14.9,84.1,-1C82.4,12.9,74.7,25.8,66.5,37.6C58.3,49.4,49.5,60,38.4,66.5C27.2,72.9,13.6,75.3,-0.7,76.6C-15.1,77.8,-30.1,78,-43.7,72.9C-57.3,67.8,-69.3,57.4,-78.4,44.4C-87.5,31.3,-93.6,15.7,-91.2,1.4C-88.7,-12.8,-77.6,-25.6,-68.2,-38.2C-58.9,-50.8,-51.2,-63.1,-40.2,-72.4C-29.1,-81.8,-14.5,-88,1,-89.8C16.6,-91.6,33.2,-89,46.2,-80.7Z" transform="translate(100 100)" />
</svg>
